# xmcd
#
# Track frame offsets:
#	150
#	24880
#	41574
#	57953
#	74129
#	90708
#	111293
#	128431
#	144694
#	158613
#	179194
#	194449
#
# Disc length: 3214 seconds
#
# Revision: 0
# Processed by: cddbd v1.5.1PL2 Copyright (c) Steve Scherf et al.
# Submitted via: EasyCDDAExtractor 4.6.9.1
#
DISCID=ac0c8c0c
DTITLE=Red Dirt Rangers - Oklahoma Territory
DYEAR=1996
DGENRE=Country
TTITLE0=Deep Ellem Blues
TTITLE1=Follow Me Down
TTITLE2=Train Ride's Allright
TTITLE3=Dog On A Chain
TTITLE4=Idabel Blues
TTITLE5=Blue Diamond
TTITLE6=Dolores
TTITLE7=Be My Baby
TTITLE8=Black Gold
TTITLE9=Fresh Cut Hay
TTITLE10=New Orleans
TTITLE11=Last Dollar Road
EXTD=
EXTT0=
EXTT1=
EXTT2=
EXTT3=
EXTT4=
EXTT5=
EXTT6=
EXTT7=
EXTT8=
EXTT9=
EXTT10=
EXTT11=
PLAYORDER=
